<?xml version="1.0" standalone="no"?>
<!DOCTYPE svg PUBLIC "-//W3C//DTD SVG 20010904//EN"
 "http://www.w3.org/TR/2001/REC-SVG-20010904/DTD/svg10.dtd">
<svg version="1.0" xmlns="http://www.w3.org/2000/svg"
 width="432.000000pt" height="432.000000pt" viewBox="0 0 432.000000 432.000000"
 preserveAspectRatio="xMidYMid meet">
<metadata>
Created by potrace 1.14, written by Peter Selinger 2001-2017
</metadata>
<g transform="translate(0.000000,432.000000) scale(0.100000,-0.100000)"
fill="#000000" stroke="none">
<path d="M1468 3775 c-1 -2 -32 -6 -68 -10 -79 -8 -261 -54 -354 -90 -250 -95
-499 -272 -674 -481 -101 -120 -215 -320 -273 -478 -34 -91 -74 -251 -86 -341
-17 -136 -8 -422 18 -534 6 -25 13 -57 15 -69 3 -13 21 -72 40 -130 101 -303
306 -587 559 -775 28 -20 55 -40 60 -45 6 -4 39 -25 74 -47 188 -113 407 -191
632 -222 70 -10 349 -10 416 -1 148 22 323 70 431 119 34 16 64 29 67 29 8 0
200 113 228 134 77 58 179 147 235 205 61 63 202 242 202 256 0 4 8 19 18 33
45 64 132 255 157 342 59 208 74 319 69 520 -2 91 -6 185 -10 210 -10 73 -61
264 -89 331 -14 34 -25 68 -25 76 0 7 -4 13 -10 13 -5 0 -10 6 -10 14 0 36
-143 266 -227 366 -42 49 -131 139 -184 185 -53 46 -127 105 -132 105 -3 0
-31 18 -63 39 -167 112 -436 210 -649 238 -46 6 -362 13 -367 8z m310 -1173
c245 -93 367 -349 285 -595 -14 -39 -28 -74 -32 -77 -4 -3 -17 -21 -28 -40
-76 -124 -256 -209 -416 -197 -123 10 -214 52 -298 137 -184 184 -183 479 0
660 54 53 136 105 183 116 13 3 39 10 58 14 56 14 190 4 248 -18z"/>
<path d="M3825 2536 c-171 -54 -282 -200 -283 -373 0 -157 82 -287 228 -357
59 -28 74 -31 160 -31 86 0 101 3 162 32 84 40 151 107 192 193 28 58 31 75
31 160 0 86 -3 101 -32 162 -39 83 -103 147 -189 189 -55 27 -78 33 -147 35
-45 1 -100 -3 -122 -10z"/>
</g>
</svg>
